<?xml version="1.0" encoding="UTF-8"?>
<svg width="1209px" height="1355px" viewBox="0 0 1209 1355" version="1.1" xmlns="http://www.w3.org/2000/svg" xmlns:xlink="http://www.w3.org/1999/xlink">
    <!-- Generator: Sketch 51.3 (57544) - http://www.bohemiancoding.com/sketch -->
    <title>logo_original</title>
    <desc>Created with Sketch.</desc>
    <defs>
        <linearGradient x1="95.7757061%" y1="9.08845393%" x2="5.46431639%" y2="93.3800849%" id="linearGradient-1">
            <stop stop-color="#1C97D0" offset="0%"></stop>
            <stop stop-color="#3F8FD2" stop-opacity="0.430564991" offset="30.8638776%"></stop>
            <stop stop-color="#7A81D5" stop-opacity="0.332823822" offset="62.7303107%"></stop>
            <stop stop-color="#9B78D5" offset="100%"></stop>
        </linearGradient>
        <linearGradient x1="96.1255617%" y1="10.4101907%" x2="4.41571026%" y2="89.2978553%" id="linearGradient-2">
            <stop stop-color="#1C97D0" offset="0%"></stop>
            <stop stop-color="#0D92C9" stop-opacity="0.430989583" offset="31.4832755%"></stop>
            <stop stop-color="#0D92C9" stop-opacity="0.693699049" offset="62.337404%"></stop>
            <stop stop-color="#008DC2" offset="100%"></stop>
        </linearGradient>
        <linearGradient x1="50%" y1="4.29596935%" x2="50%" y2="98.222154%" id="linearGradient-3">
            <stop stop-color="#0065A1" offset="0%"></stop>
            <stop stop-color="#0F80BB" stop-opacity="0.522276947" offset="38.9362927%"></stop>
            <stop stop-color="#1C97D0" offset="100%"></stop>
        </linearGradient>
        <linearGradient x1="82.8436749%" y1="35.6694552%" x2="30.6259449%" y2="118.978009%" id="linearGradient-4">
            <stop stop-color="#0065A1" offset="0%"></stop>
            <stop stop-color="#009ECF" offset="36.1031804%"></stop>
            <stop stop-color="#C86DD7" offset="100%"></stop>
        </linearGradient>
        <linearGradient x1="-1.8787766%" y1="0%" x2="81.0933026%" y2="73.9529158%" id="linearGradient-5">
            <stop stop-color="#7C7FD4" offset="0%"></stop>
            <stop stop-color="#5A88D2" offset="100%"></stop>
        </linearGradient>
        <linearGradient x1="9.2008505%" y1="50.9615471%" x2="100%" y2="100%" id="linearGradient-6">
            <stop stop-color="#0065A1" offset="0%"></stop>
            <stop stop-color="#C86DD7" offset="100%"></stop>
        </linearGradient>
    </defs>
    <g id="Page-1" stroke="none" stroke-width="1" fill="none" fill-rule="evenodd">
        <g id="logo_original">
            <rect id="bg" fill="#0065A1" fill-rule="nonzero" x="0" y="0" width="659" height="478"></rect>
            <g id="logo_theme" transform="translate(130.000000, 667.000000)" fill="#0066A1" fill-rule="nonzero">
                <path d="M280.806509,74.4557154 C280.806509,58.535189 270.719504,45.1647368 257.001113,41.1378371 C255.995194,44.4624081 255.444056,48.0143691 255.444056,51.7009902 C255.444056,67.6203071 265.537914,80.9875339 279.249452,85.0112082 C280.262627,81.6826055 280.806509,78.1350793 280.806509,74.4557154 Z M304.557073,74.4557154 C304.557073,105.633547 278.980938,130.624274 248.381257,130.624274 C233.285221,130.624274 219.580538,124.650448 209.486276,114.956135 C202.584747,123.292962 190.134338,130.49284 174.84881,130.49284 C156.603583,130.49284 137.810444,121.631886 137.810444,94.6502871 L137.810444,42.1473842 L118.727825,42.1473842 L118.727825,22.2547897 L137.810444,22.2547897 L137.810444,0.771674623 L163.804267,0.771674623 L163.804267,22.2547897 L192.753354,22.2547897 L192.753354,42.1473842 L163.804267,42.1473842 L163.804267,92.0949716 C163.804267,102.980664 170.487679,110.257144 179.757854,110.257144 C186.603342,110.257144 193.792736,107.067233 199.113018,101.457876 C194.720842,93.4310895 192.205844,84.2463876 192.205844,74.4557154 C192.205844,49.8367146 208.342875,28.3531964 230.990759,21.0529287 C226.305074,28.0326732 223.190959,43.9560218 223.177251,52.7302929 C218.678235,58.6629951 215.962053,66.2285512 215.962053,74.4557154 C215.962053,93.5552671 230.488002,109.044801 248.381257,109.044801 C254.88566,109.044801 260.928429,106.976519 265.999952,103.455603 C245.845697,94.9333151 231.679783,74.9725842 231.679783,51.7009902 C231.679783,39.3154915 235.703458,27.8710005 242.490485,18.5859083 C244.43338,18.3895626 246.390385,18.2794962 248.381257,18.2794962 C256.139934,18.2794962 263.519223,19.8438105 270.236905,22.6926364 C270.236905,22.6926364 270.223197,22.6994904 270.223197,22.7095697 C290.39761,31.2266159 304.557073,51.1804928 304.557073,74.4557154 Z M83.1715263,75.22739 L65.5153367,25.4487324 L47.8970455,75.22739 L83.1715263,75.22739 Z M124.822604,112.358083 L134.954764,112.358083 L134.954764,128.254016 L86.3545833,128.254016 L86.3545833,112.358083 L96.3488582,112.358083 L90.1613501,94.9119468 L40.9281867,94.9119468 L34.7576119,112.358083 L45.4235744,112.358083 L45.4235744,128.254016 L0,128.254016 L0,112.358083 L10.8211844,112.358083 L44.6861695,16.6982486 L31.0988098,16.6982486 L31.0988098,0.813201522 L85.2454522,0.813201522 L124.822604,112.358083 Z M400,91.1987163 C400,117.353003 376.357889,130.555332 348.488501,130.555332 C330.242872,130.555332 313.982067,126.476422 300.360841,118.986663 C303.902319,113.83894 309.255661,104.83365 311.749694,99.4867598 C320.948507,103.304009 335.920365,107.886079 349.432331,107.886079 C362.627403,107.886079 372.934944,102.380741 372.934944,94.995807 C372.934944,88.567201 370.729583,83.544462 349.742775,77.0049832 C322.567249,68.5580893 307.216811,60.1099858 307.216811,37.2863179 C307.216811,13.2777222 329.313153,0 357.307928,0 C369.395078,0 383.860953,2.69037866 393.283125,4.95097407 L391.876048,39.9113824 L371.955232,39.5497355 L372.051993,22.1620597 C369.108825,21.5145626 364.879532,20.9739066 359.023432,20.9739066 C343.879016,20.9739066 333.461005,26.1897658 333.461005,34.9918559 C333.461005,41.2273416 339.441685,47.1011805 360.574039,53.9019159 C387.791898,62.6455457 400,70.87271 400,91.1987163 Z" id="Logo_RGB"></path>
            </g>
            <g id="logo_white" transform="translate(130.000000, 141.000000)">
                <polygon id="Clip-2" points="0 135.012594 0 0 400 0 400 135.012594"></polygon>
                <path d="M360.929689,55.7421702 C339.98775,48.7092523 334.060959,42.6344589 334.060959,36.1860888 C334.060959,27.0839053 344.385098,21.6895555 359.393454,21.6895555 C365.197186,21.6895555 369.389569,22.2490869 372.305419,22.9186901 L372.209929,40.899995 L391.949649,41.2739888 L393.342449,5.12000426 C384.008773,2.78223033 369.669647,0 357.693407,0 C329.950482,0 308.05364,13.7310342 308.05364,38.5593025 C308.05364,62.1621885 323.265762,70.8983001 350.196021,79.6339946 C370.994525,86.3963195 373.179615,91.5905388 373.179615,98.2390394 C373.179615,105.876101 362.964551,111.568979 349.888774,111.568979 C336.498559,111.568979 321.661206,106.83089 312.545679,102.883317 C310.073719,108.412755 304.769014,117.725492 301.259446,123.048962 C314.757937,130.794428 330.872223,135.012594 348.953449,135.012594 C376.572916,135.012594 400,121.359528 400,94.312313 C400,73.2923607 387.900701,64.7843145 360.929689,55.7421702" id="Fill-1" fill="#FFFFFE" fill-rule="nonzero"></path>
                <path d="M47.9175703,78.8350129 L65.5434112,26.0992286 L83.2071668,78.8350129 L47.9175703,78.8350129 Z M85.2819814,0 L31.1121362,0 L31.1121362,16.8288428 L44.7053184,16.8288428 L10.8254181,118.172219 L0,118.172219 L0,135.012594 L45.4430392,135.012594 L45.4430392,118.172219 L34.7725062,118.172219 L40.9453218,99.6895369 L90.1995826,99.6895369 L96.3897421,118.172219 L86.3915878,118.172219 L86.3915878,135.012594 L135.012594,135.012594 L135.012594,118.172219 L124.876092,118.172219 L85.2819814,0 Z" id="Fill-3" fill="#FFFFFE" fill-rule="nonzero"></path>
                <path d="M272.393009,87.5869872 C258.93688,83.4034228 249.030647,69.5050182 249.030647,52.9526911 C249.030647,49.1195735 249.571915,45.4268863 250.559096,41.9702057 C264.021555,46.1571237 273.921063,60.0588819 273.921063,76.6116282 C273.921063,80.4372002 273.386917,84.1261147 272.393009,87.5869872 Z M263.534889,22.8096484 C263.534889,22.7991685 263.548341,22.7920422 263.548341,22.7920422 C256.955792,19.8300115 249.713562,18.2031164 242.099805,18.2031164 C240.145621,18.2031164 238.225465,18.3179757 236.318761,18.5221236 C229.658158,28.1757614 225.709038,40.0754451 225.709038,52.9526911 C225.709038,77.1494551 239.611475,97.9029528 259.389915,106.764312 C254.413257,110.425141 248.483048,112.575191 242.099805,112.575191 C224.539456,112.575191 210.284482,96.4701449 210.284482,76.6116282 C210.284482,68.0579576 212.949673,60.1917666 217.364885,54.0233147 C217.378337,44.8999584 220.43484,28.3442777 225.032848,21.0871768 C202.806832,28.6775376 186.97039,51.0147534 186.97039,76.6116282 C186.97039,86.7917746 189.438541,96.3414521 193.749297,104.687202 C188.527723,110.51946 181.472642,113.836129 174.754271,113.836129 C165.656775,113.836129 159.097856,106.270501 159.097856,94.9518212 L159.097856,43.0198696 L187.508097,43.0198696 L187.508097,22.3367966 L159.097856,22.3367966 L159.097856,0 L133.588622,0 L133.588622,22.3367966 L114.861461,22.3367966 L114.861461,43.0198696 L133.588622,43.0198696 L133.588622,97.6090973 C133.588622,125.662873 152.031697,134.875937 169.937065,134.875937 C184.93747,134.875937 197.155962,127.389956 203.928935,118.721845 C213.835168,128.800965 227.284966,135.012594 242.099805,135.012594 C272.129101,135.012594 297.229219,109.028384 297.229219,76.6116282 C297.229219,52.4115106 283.333508,31.6651392 263.534889,22.8096484 Z" id="Fill-4" fill="#FFFFFE" fill-rule="nonzero"></path>
            </g>
            <g id="logo_onesource" transform="translate(790.000000, 29.000000)">
                <path d="M282.806509,74.4557154 C282.806509,58.535189 272.719504,45.1647368 259.001113,41.1378371 C257.995194,44.4624081 257.444056,48.0143691 257.444056,51.7009902 C257.444056,67.6203071 267.537914,80.9875339 281.249452,85.0112082 C282.262627,81.6826055 282.806509,78.1350793 282.806509,74.4557154 Z M306.557073,74.4557154 C306.557073,105.633547 280.980938,130.624274 250.381257,130.624274 C235.285221,130.624274 221.580538,124.650448 211.486276,114.956135 C204.584747,123.292962 192.134338,130.49284 176.84881,130.49284 C158.603583,130.49284 139.810444,121.631886 139.810444,94.6502871 L139.810444,42.1473842 L120.727825,42.1473842 L120.727825,22.2547897 L139.810444,22.2547897 L139.810444,0.771674623 L165.804267,0.771674623 L165.804267,22.2547897 L194.753354,22.2547897 L194.753354,42.1473842 L165.804267,42.1473842 L165.804267,92.0949716 C165.804267,102.980664 172.487679,110.257144 181.757854,110.257144 C188.603342,110.257144 195.792736,107.067233 201.113018,101.457876 C196.720842,93.4310895 194.205844,84.2463876 194.205844,74.4557154 C194.205844,49.8367146 210.342875,28.3531964 232.990759,21.0529287 C228.305074,28.0326732 225.190959,43.9560218 225.177251,52.7302929 C220.678235,58.6629951 217.962053,66.2285512 217.962053,74.4557154 C217.962053,93.5552671 232.488002,109.044801 250.381257,109.044801 C256.88566,109.044801 262.928429,106.976519 267.999952,103.455603 C247.845697,94.9333151 233.679783,74.9725842 233.679783,51.7009902 C233.679783,39.3154915 237.703458,27.8710005 244.490485,18.5859083 C246.43338,18.3895626 248.390385,18.2794962 250.381257,18.2794962 C258.139934,18.2794962 265.519223,19.8438105 272.236905,22.6926364 C272.236905,22.6926364 272.223197,22.6994904 272.223197,22.7095697 C292.39761,31.2266159 306.557073,51.1804928 306.557073,74.4557154 Z M85.1715263,75.22739 L67.5153367,25.4487324 L49.8970455,75.22739 L85.1715263,75.22739 Z M126.822604,112.358083 L136.954764,112.358083 L136.954764,128.254016 L88.3545833,128.254016 L88.3545833,112.358083 L98.3488582,112.358083 L92.1613501,94.9119468 L42.9281867,94.9119468 L36.7576119,112.358083 L47.4235744,112.358083 L47.4235744,128.254016 L2,128.254016 L2,112.358083 L12.8211844,112.358083 L46.6861695,16.6982486 L33.0988098,16.6982486 L33.0988098,0.813201522 L87.2454522,0.813201522 L126.822604,112.358083 Z M402,91.1987163 C402,117.353003 378.357889,130.555332 350.488501,130.555332 C332.242872,130.555332 315.982067,126.476422 302.360841,118.986663 C305.902319,113.83894 311.255661,104.83365 313.749694,99.4867598 C322.948507,103.304009 337.920365,107.886079 351.432331,107.886079 C364.627403,107.886079 374.934944,102.380741 374.934944,94.995807 C374.934944,88.567201 372.729583,83.544462 351.742775,77.0049832 C324.567249,68.5580893 309.216811,60.1099858 309.216811,37.2863179 C309.216811,13.2777222 331.313153,9.9475983e-14 359.307928,9.9475983e-14 C371.395078,9.9475983e-14 385.860953,2.69037866 395.283125,4.95097407 L393.876048,39.9113824 L373.955232,39.5497355 L374.051993,22.1620597 C371.108825,21.5145626 366.879532,20.9739066 361.023432,20.9739066 C345.879016,20.9739066 335.461005,26.1897658 335.461005,34.9918559 C335.461005,41.2273416 341.441685,47.1011805 362.574039,53.9019159 C389.791898,62.6455457 402,70.87271 402,91.1987163 Z" id="Logo_RGB" fill="#0066A1" fill-rule="nonzero"></path>
                <g id="OneSource" transform="translate(0.000000, 128.000000)" fill="#2A2929" font-family="Stag-Light, Stag" font-size="82" font-weight="300">
                    <text>
                        <tspan x="0" y="66">OneSource</tspan>
                    </text>
                </g>
            </g>
            <g id="logo_oneloyalty" transform="translate(778.000000, 373.000000)">
                <path d="M300.806509,74.4557154 C300.806509,58.535189 290.719504,45.1647368 277.001113,41.1378371 C275.995194,44.4624081 275.444056,48.0143691 275.444056,51.7009902 C275.444056,67.6203071 285.537914,80.9875339 299.249452,85.0112082 C300.262627,81.6826055 300.806509,78.1350793 300.806509,74.4557154 Z M324.557073,74.4557154 C324.557073,105.633547 298.980938,130.624274 268.381257,130.624274 C253.285221,130.624274 239.580538,124.650448 229.486276,114.956135 C222.584747,123.292962 210.134338,130.49284 194.84881,130.49284 C176.603583,130.49284 157.810444,121.631886 157.810444,94.6502871 L157.810444,42.1473842 L138.727825,42.1473842 L138.727825,22.2547897 L157.810444,22.2547897 L157.810444,0.771674623 L183.804267,0.771674623 L183.804267,22.2547897 L212.753354,22.2547897 L212.753354,42.1473842 L183.804267,42.1473842 L183.804267,92.0949716 C183.804267,102.980664 190.487679,110.257144 199.757854,110.257144 C206.603342,110.257144 213.792736,107.067233 219.113018,101.457876 C214.720842,93.4310895 212.205844,84.2463876 212.205844,74.4557154 C212.205844,49.8367146 228.342875,28.3531964 250.990759,21.0529287 C246.305074,28.0326732 243.190959,43.9560218 243.177251,52.7302929 C238.678235,58.6629951 235.962053,66.2285512 235.962053,74.4557154 C235.962053,93.5552671 250.488002,109.044801 268.381257,109.044801 C274.88566,109.044801 280.928429,106.976519 285.999952,103.455603 C265.845697,94.9333151 251.679783,74.9725842 251.679783,51.7009902 C251.679783,39.3154915 255.703458,27.8710005 262.490485,18.5859083 C264.43338,18.3895626 266.390385,18.2794962 268.381257,18.2794962 C276.139934,18.2794962 283.519223,19.8438105 290.236905,22.6926364 C290.236905,22.6926364 290.223197,22.6994904 290.223197,22.7095697 C310.39761,31.2266159 324.557073,51.1804928 324.557073,74.4557154 Z M103.171526,75.22739 L85.5153367,25.4487324 L67.8970455,75.22739 L103.171526,75.22739 Z M144.822604,112.358083 L154.954764,112.358083 L154.954764,128.254016 L106.354583,128.254016 L106.354583,112.358083 L116.348858,112.358083 L110.16135,94.9119468 L60.9281867,94.9119468 L54.7576119,112.358083 L65.4235744,112.358083 L65.4235744,128.254016 L20,128.254016 L20,112.358083 L30.8211844,112.358083 L64.6861695,16.6982486 L51.0988098,16.6982486 L51.0988098,0.813201522 L105.245452,0.813201522 L144.822604,112.358083 Z M420,91.1987163 C420,117.353003 396.357889,130.555332 368.488501,130.555332 C350.242872,130.555332 333.982067,126.476422 320.360841,118.986663 C323.902319,113.83894 329.255661,104.83365 331.749694,99.4867598 C340.948507,103.304009 355.920365,107.886079 369.432331,107.886079 C382.627403,107.886079 392.934944,102.380741 392.934944,94.995807 C392.934944,88.567201 390.729583,83.544462 369.742775,77.0049832 C342.567249,68.5580893 327.216811,60.1099858 327.216811,37.2863179 C327.216811,13.2777222 349.313153,0 377.307928,0 C389.395078,0 403.860953,2.69037866 413.283125,4.95097407 L411.876048,39.9113824 L391.955232,39.5497355 L392.051993,22.1620597 C389.108825,21.5145626 384.879532,20.9739066 379.023432,20.9739066 C363.879016,20.9739066 353.461005,26.1897658 353.461005,34.9918559 C353.461005,41.2273416 359.441685,47.1011805 380.574039,53.9019159 C407.791898,62.6455457 420,70.87271 420,91.1987163 Z" id="Logo_RGB" fill="#0066A1" fill-rule="nonzero"></path>
                <g id="OneLoyalty" transform="translate(0.000000, 128.000000)" fill="#2A2929" font-family="Stag-Light, Stag" font-size="82" font-weight="300">
                    <text>
                        <tspan x="0" y="66">OneLoyalty</tspan>
                    </text>
                </g>
            </g>
            <g id="logo_onecontact" transform="translate(774.000000, 686.000000)">
                <path d="M300.806509,74.4557154 C300.806509,58.535189 290.719504,45.1647368 277.001113,41.1378371 C275.995194,44.4624081 275.444056,48.0143691 275.444056,51.7009902 C275.444056,67.6203071 285.537914,80.9875339 299.249452,85.0112082 C300.262627,81.6826055 300.806509,78.1350793 300.806509,74.4557154 Z M324.557073,74.4557154 C324.557073,105.633547 298.980938,130.624274 268.381257,130.624274 C253.285221,130.624274 239.580538,124.650448 229.486276,114.956135 C222.584747,123.292962 210.134338,130.49284 194.84881,130.49284 C176.603583,130.49284 157.810444,121.631886 157.810444,94.6502871 L157.810444,42.1473842 L138.727825,42.1473842 L138.727825,22.2547897 L157.810444,22.2547897 L157.810444,0.771674623 L183.804267,0.771674623 L183.804267,22.2547897 L212.753354,22.2547897 L212.753354,42.1473842 L183.804267,42.1473842 L183.804267,92.0949716 C183.804267,102.980664 190.487679,110.257144 199.757854,110.257144 C206.603342,110.257144 213.792736,107.067233 219.113018,101.457876 C214.720842,93.4310895 212.205844,84.2463876 212.205844,74.4557154 C212.205844,49.8367146 228.342875,28.3531964 250.990759,21.0529287 C246.305074,28.0326732 243.190959,43.9560218 243.177251,52.7302929 C238.678235,58.6629951 235.962053,66.2285512 235.962053,74.4557154 C235.962053,93.5552671 250.488002,109.044801 268.381257,109.044801 C274.88566,109.044801 280.928429,106.976519 285.999952,103.455603 C265.845697,94.9333151 251.679783,74.9725842 251.679783,51.7009902 C251.679783,39.3154915 255.703458,27.8710005 262.490485,18.5859083 C264.43338,18.3895626 266.390385,18.2794962 268.381257,18.2794962 C276.139934,18.2794962 283.519223,19.8438105 290.236905,22.6926364 C290.236905,22.6926364 290.223197,22.6994904 290.223197,22.7095697 C310.39761,31.2266159 324.557073,51.1804928 324.557073,74.4557154 Z M103.171526,75.22739 L85.5153367,25.4487324 L67.8970455,75.22739 L103.171526,75.22739 Z M144.822604,112.358083 L154.954764,112.358083 L154.954764,128.254016 L106.354583,128.254016 L106.354583,112.358083 L116.348858,112.358083 L110.16135,94.9119468 L60.9281867,94.9119468 L54.7576119,112.358083 L65.4235744,112.358083 L65.4235744,128.254016 L20,128.254016 L20,112.358083 L30.8211844,112.358083 L64.6861695,16.6982486 L51.0988098,16.6982486 L51.0988098,0.813201522 L105.245452,0.813201522 L144.822604,112.358083 Z M420,91.1987163 C420,117.353003 396.357889,130.555332 368.488501,130.555332 C350.242872,130.555332 333.982067,126.476422 320.360841,118.986663 C323.902319,113.83894 329.255661,104.83365 331.749694,99.4867598 C340.948507,103.304009 355.920365,107.886079 369.432331,107.886079 C382.627403,107.886079 392.934944,102.380741 392.934944,94.995807 C392.934944,88.567201 390.729583,83.544462 369.742775,77.0049832 C342.567249,68.5580893 327.216811,60.1099858 327.216811,37.2863179 C327.216811,13.2777222 349.313153,0 377.307928,0 C389.395078,0 403.860953,2.69037866 413.283125,4.95097407 L411.876048,39.9113824 L391.955232,39.5497355 L392.051993,22.1620597 C389.108825,21.5145626 384.879532,20.9739066 379.023432,20.9739066 C363.879016,20.9739066 353.461005,26.1897658 353.461005,34.9918559 C353.461005,41.2273416 359.441685,47.1011805 380.574039,53.9019159 C407.791898,62.6455457 420,70.87271 420,91.1987163 Z" id="Logo_RGB" fill="#0066A1" fill-rule="nonzero"></path>
                <g id="OneContact" transform="translate(0.000000, 128.000000)" fill="#2A2929" font-family="Stag-Light, Stag" font-size="82" font-weight="300">
                    <text>
                        <tspan x="0" y="66">OneContact</tspan>
                    </text>
                </g>
            </g>
            <g id="logo_digital_transformation" transform="translate(111.000000, 976.000000)">
                <path d="M88.5915446,171.227437 L88.5915446,171.227437 C91.1968594,171.227437 93.3387121,173.281876 93.4472078,175.884931 L100.875868,354.115069 C100.978705,356.582353 99.061942,358.665848 96.5946579,358.768685 C96.5326241,358.77127 96.4705431,358.772563 96.4084554,358.772563 L96.4084554,358.772563 C93.8031406,358.772563 91.6612879,356.718124 91.5527922,354.115069 L84.1241316,175.884931 C84.0212948,173.417647 85.938058,171.334152 88.4053421,171.231315 C88.4673759,171.22873 88.5294569,171.227437 88.5915446,171.227437 Z" id="Rectangle-28-Copy-4" fill="#FFFFFF" transform="translate(92.500000, 265.000000) rotate(72.000000) translate(-92.500000, -265.000000) "></path>
                <path d="M88.5915446,171.227437 L88.5915446,171.227437 C91.1968594,171.227437 93.3387121,173.281876 93.4472078,175.884931 L100.875868,354.115069 C100.978705,356.582353 99.061942,358.665848 96.5946579,358.768685 C96.5326241,358.77127 96.4705431,358.772563 96.4084554,358.772563 L96.4084554,358.772563 C93.8031406,358.772563 91.6612879,356.718124 91.5527922,354.115069 L84.1241316,175.884931 C84.0212948,173.417647 85.938058,171.334152 88.4053421,171.231315 C88.4673759,171.22873 88.5294569,171.227437 88.5915446,171.227437 Z" id="Rectangle-28-Copy-4" fill="url(#linearGradient-1)" opacity="0.833784412" transform="translate(92.500000, 265.000000) rotate(72.000000) translate(-92.500000, -265.000000) "></path>
                <path d="M262.026733,153 L262.026733,153 C264.706555,153 266.981455,154.96423 267.372147,157.615419 L296.958383,358.384581 C297.28272,360.5855 295.76145,362.632624 293.560531,362.956961 C293.366089,362.985615 293.16981,363 292.973267,363 L292.973267,363 C290.293445,363 288.018545,361.03577 287.627853,358.384581 L258.041617,157.615419 C257.71728,155.4145 259.23855,153.367376 261.439469,153.043039 C261.633911,153.014385 261.83019,153 262.026733,153 Z" id="Rectangle-28-Copy-4" fill="#FFFFFF" transform="translate(277.500000, 258.000000) scale(-1, 1) rotate(-95.000000) translate(-277.500000, -258.000000) "></path>
                <path d="M262.026733,153 L262.026733,153 C264.706555,153 266.981455,154.96423 267.372147,157.615419 L296.958383,358.384581 C297.28272,360.5855 295.76145,362.632624 293.560531,362.956961 C293.366089,362.985615 293.16981,363 292.973267,363 L292.973267,363 C290.293445,363 288.018545,361.03577 287.627853,358.384581 L258.041617,157.615419 C257.71728,155.4145 259.23855,153.367376 261.439469,153.043039 C261.633911,153.014385 261.83019,153 262.026733,153 Z" id="Rectangle-28-Copy-4" fill="url(#linearGradient-2)" opacity="0.494419643" transform="translate(277.500000, 258.000000) scale(-1, 1) rotate(-95.000000) translate(-277.500000, -258.000000) "></path>
                <path d="M175.5,6 L175.5,6 C177.985281,6 180,8.01471863 180,10.5 L180,233.5 C180,235.985281 177.985281,238 175.5,238 L175.5,238 C173.014719,238 171,235.985281 171,233.5 L171,10.5 C171,8.01471863 173.014719,6 175.5,6 Z" id="Rectangle-28-Copy-8" fill="#FFFFFF"></path>
                <path d="M175.5,6 L175.5,6 C177.985281,6 180,8.01471863 180,10.5 L180,233.5 C180,235.985281 177.985281,238 175.5,238 L175.5,238 C173.014719,238 171,235.985281 171,233.5 L171,10.5 C171,8.01471863 173.014719,6 175.5,6 Z" id="Rectangle-28-Copy-8" fill="url(#linearGradient-3)" opacity="0.494419643"></path>
                <g id="Group">
                    <g id="Group-12-Copy-3">
                        <path d="M62.7419355,303.324064 L62.7419355,172.923415 C62.7419355,168.303226 66.4873383,164.557823 71.1075269,164.557823 C72.4795086,164.557823 73.7743505,164.888098 74.9168831,165.473479 C136.182337,179.77337 170.797491,211.428524 170.797491,259.86939 C170.797491,308.248241 141.517921,332.602041 102.827061,329.115646 C98.7534765,328.74858 93.6648657,326.111862 92.3700717,322.142857 C92.8821292,315.786199 97.52968,313.694363 106.312724,315.867347 C119.48729,319.126823 155.112007,300.527211 156.854839,261.479592 C158.538919,223.748278 131.175594,198.939135 79.4731183,183.879136 L79.4731183,234.62531 L79.4731183,313.795438 C79.4731183,318.415626 75.7277154,322.161029 71.1075269,322.161029 C70.9477242,322.161029 70.788968,322.156548 70.6313772,322.147706 C69.6898515,322.233202 68.7179604,322.160599 67.7507048,321.909507 L7.39206473,306.240878 C6.2844733,305.953356 5.2874108,305.455296 4.43262513,304.80071 C1.79501614,303.393143 2.52606975e-14,300.613904 2.48689958e-14,297.415417 L0,84.3324723 C-4.99149179e-16,80.2566099 2.91486305,76.8615503 6.77373403,76.1181486 C8.23267788,75.629531 9.84355063,75.5372798 11.4470927,75.9370877 L190.740688,120.640002 C195.223637,121.757726 197.95169,126.29797 196.833966,130.780919 C195.716241,135.263868 191.175997,137.991922 186.693048,136.874197 L16.7311828,94.4979444 L16.7311828,291.380033 L62.7419355,303.324064 Z M176.289867,17.4332126 L47.7897951,74.6451306 C43.5690428,76.5243306 38.6240545,74.6261274 36.7448545,70.4053751 C34.8656545,66.1846229 36.7638577,61.2396345 40.9846099,59.3604345 L170.934998,1.50279416 C171.705916,1.1595593 172.500995,0.942341727 173.297142,0.842276521 C174.779345,0.327357327 176.423075,0.223040105 178.059173,0.6309653 L382.277148,51.5482251 C386.760098,52.6659499 389.488151,57.2061932 388.370426,61.6891424 C387.903606,63.5614573 386.839783,65.1276593 385.432472,66.2354223 C384.622306,67.3698097 383.517026,68.3169963 382.163525,68.9481439 L224.476703,142.478717 L224.476703,324.236449 C224.476703,328.856638 220.7313,332.602041 216.111111,332.602041 C211.490923,332.602041 207.74552,328.856638 207.74552,324.236449 L207.74552,139.454027 C207.74552,138.289721 207.983375,137.180969 208.413146,136.173712 C208.650812,133.276334 210.394078,130.584735 213.21735,129.268221 L356.625454,62.3959245 L176.289867,17.4332126 Z M376.894617,82.1354638 C381.514806,82.1354638 385.260209,85.8808666 385.260209,90.5010552 L385.260209,277.518762 C385.260209,282.138951 381.514806,285.884354 376.894617,285.884354 C372.274429,285.884354 368.529026,282.138951 368.529026,277.518762 L368.529026,90.5010552 C368.529026,85.8808666 372.274429,82.1354638 376.894617,82.1354638 Z M210.788384,355.842046 C210.757981,355.776847 210.728443,355.711248 210.699778,355.645266 C208.906932,351.518498 210.798949,346.719703 214.925717,344.926856 L349.175039,286.60316 C353.445084,284.748068 358.415732,286.632161 360.383276,290.851572 C360.413679,290.916771 360.443216,290.98237 360.471882,291.048351 C362.264728,295.175119 360.37271,299.973915 356.245942,301.766761 L221.996621,360.090458 C217.726575,361.94555 212.755927,360.061457 210.788384,355.842046 Z" id="Combined-Shape" fill="url(#linearGradient-4)"></path>
                        <path d="M156.644071,267.605328 L156.644071,267.605328 C161.282801,267.605328 165.061048,271.331835 165.125006,275.970124 L166.82379,399.167246 C166.88662,403.723732 163.243792,407.468428 158.687306,407.531258 C158.649387,407.531781 158.611465,407.532042 158.573542,407.532042 L158.573542,407.532042 C153.953354,407.532042 150.207951,403.78664 150.207951,399.166451 L150.207951,333.744587 L148.522424,275.967362 C148.391571,271.4819 151.921678,267.739637 156.40714,267.608783 C156.486096,267.60648 156.565082,267.605328 156.644071,267.605328 Z" id="Rectangle-28-Copy" fill="url(#linearGradient-5)" transform="translate(157.671746, 337.568685) rotate(-75.000000) translate(-157.671746, -337.568685) "></path>
                    </g>
                </g>
            </g>
            <g id="logo_digital_transformation_with_title" transform="translate(690.000000, 984.000000)">
                <g id="Group-2" transform="translate(109.000000, 0.000000)">
                    <path d="M68.8487719,133.299925 L68.8487719,133.299925 C70.8749608,133.299925 72.5409121,134.89729 72.6260443,136.92169 L78.4001196,274.226184 C78.4807731,276.144081 76.9913929,277.764226 75.0734959,277.84488 C75.0248441,277.846926 74.9761547,277.847949 74.9274599,277.847949 L74.9274599,277.847949 C72.9012711,277.847949 71.2353198,276.250584 71.1501876,274.226184 L65.3761123,136.92169 C65.2954588,135.003793 66.784839,133.383647 68.702736,133.302994 C68.7513877,133.300948 68.8000772,133.299925 68.8487719,133.299925 Z" id="Rectangle-28-Copy-4" fill="#FFFFFF" transform="translate(71.888116, 205.573937) rotate(72.000000) translate(-71.888116, -205.573937) "></path>
                    <path d="M68.8487719,132.759108 L68.8487719,132.759108 C70.8749608,132.759108 72.5409121,134.356474 72.6260443,136.380873 L78.4001196,273.685368 C78.4807731,275.603265 76.9913929,277.22341 75.0734959,277.304063 C75.0248441,277.306109 74.9761547,277.307133 74.9274599,277.307133 L74.9274599,277.307133 C72.9012711,277.307133 71.2353198,275.709767 71.1501876,273.685368 L65.3761123,136.380873 C65.2954588,134.462976 66.784839,132.842831 68.702736,132.762178 C68.7513877,132.760132 68.8000772,132.759108 68.8487719,132.759108 Z" id="Rectangle-28-Copy-4" fill="url(#linearGradient-1)" opacity="0.833784412" transform="translate(71.888116, 205.033120) rotate(72.000000) translate(-71.888116, -205.033120) "></path>
                    <path d="M203.116284,118.902551 L203.116284,118.902551 C205.198839,118.902551 206.967017,120.42835 207.271845,122.488474 L230.256478,277.825581 C230.509349,279.534555 229.328943,281.124944 227.61997,281.377814 C227.46838,281.400244 227.315347,281.411504 227.162108,281.411504 L227.162108,281.411504 C225.079553,281.411504 223.311375,279.885705 223.006546,277.825581 L200.021913,122.488474 C199.769043,120.779501 200.949448,119.189112 202.658422,118.936242 C202.810011,118.913811 202.963044,118.902551 203.116284,118.902551 Z" id="Rectangle-28-Copy-4" fill="#FFFFFF" transform="translate(215.139196, 200.157028) scale(-1, 1) rotate(-95.000000) translate(-215.139196, -200.157028) "></path>
                    <path d="M203.116284,118.902551 L203.116284,118.902551 C205.198839,118.902551 206.967017,120.42835 207.271845,122.488474 L230.256478,277.825581 C230.509349,279.534555 229.328943,281.124944 227.61997,281.377814 C227.46838,281.400244 227.315347,281.411504 227.162108,281.411504 L227.162108,281.411504 C225.079553,281.411504 223.311375,279.885705 223.006546,277.825581 L200.021913,122.488474 C199.769043,120.779501 200.949448,119.189112 202.658422,118.936242 C202.810011,118.913811 202.963044,118.902551 203.116284,118.902551 Z" id="Rectangle-28-Copy-4" fill="url(#linearGradient-2)" opacity="0.494419643" transform="translate(215.139196, 200.157028) scale(-1, 1) rotate(-95.000000) translate(-215.139196, -200.157028) "></path>
                    <path d="M136.825293,4.86734694 L136.825293,4.86734694 C138.860742,4.86734694 140.5108,6.5174049 140.5108,8.55285454 L140.5108,181.029956 C140.5108,183.065405 138.860742,184.715463 136.825293,184.715463 L136.825293,184.715463 C134.789843,184.715463 133.139785,183.065405 133.139785,181.029956 L133.139785,8.55285454 C133.139785,6.5174049 134.789843,4.86734694 136.825293,4.86734694 Z" id="Rectangle-28-Copy-8" fill="#FFFFFF"></path>
                    <path d="M136.825293,4.86734694 L136.825293,4.86734694 C138.860742,4.86734694 140.5108,6.5174049 140.5108,8.55285454 L140.5108,181.029956 C140.5108,183.065405 138.860742,184.715463 136.825293,184.715463 L136.825293,184.715463 C134.789843,184.715463 133.139785,183.065405 133.139785,181.029956 L133.139785,8.55285454 C133.139785,6.5174049 134.789843,4.86734694 136.825293,4.86734694 Z" id="Rectangle-28-Copy-8" fill="url(#linearGradient-3)" opacity="0.494419643"></path>
                    <g id="Group">
                        <g id="Group-12-Copy-3">
                            <path d="M48.7096774,235.258998 L48.7096774,134.127277 C48.7096774,130.540395 51.6174195,127.632653 55.2043011,127.632653 C56.2684664,127.632653 57.2728536,127.888594 58.1592643,128.342278 C105.72419,139.433144 132.598566,163.985386 132.598566,201.557234 C132.598566,239.080343 109.867384,257.969388 79.8297491,255.265306 C76.6672234,254.980606 72.7166823,252.935542 71.7114695,249.857143 C72.1090052,244.926857 75.7171295,243.304408 82.5358423,244.989796 C92.7639115,247.517878 120.421147,233.091837 121.774194,202.806122 C123.081629,173.541347 101.838122,154.299134 61.6989247,142.618452 L61.6989247,181.977679 L61.6989247,243.376613 C61.6989247,246.963495 58.7911827,249.871237 55.2043011,249.871237 C55.0842396,249.871237 54.964939,249.867979 54.8464828,249.861547 C54.1030395,249.93371 53.334635,249.878901 52.5699613,249.680403 L5.76709881,237.53112 C4.92105397,237.3115 4.15807864,236.933645 3.50165027,236.437495 C1.42100456,235.355169 2.08343412e-15,233.179586 1.77635684e-15,230.67211 L0,65.4152776 C-3.9314713e-16,62.2049877 2.32921893,59.538716 5.38988679,59.0142325 C6.5069486,58.6519073 7.73586119,58.588006 8.95927745,58.8930379 L148.009128,93.5620595 C151.489464,94.4298047 153.607387,97.9546208 152.739642,101.434957 C151.871897,104.915293 148.34708,107.033216 144.866745,106.165471 L12.9892473,73.2847176 L12.9892473,225.986539 L48.7096774,235.258998 Z M136.858451,13.5079327 L37.1553157,57.8986283 C33.8785363,59.3575445 30.0394965,57.8838752 28.5805803,54.6070958 C27.1216641,51.3303164 28.5953334,47.4912766 31.8721128,46.0323605 L132.651593,1.16244499 C133.3135,0.867745125 133.998349,0.6927055 134.681888,0.628016635 C135.816562,0.246428649 137.070001,0.173782776 138.317722,0.48487468 L296.699165,39.9738035 C300.179501,40.8415487 302.297424,44.3663648 301.429679,47.8467007 C301.071851,49.2818695 300.262202,50.4853669 299.190166,51.3433694 C298.558982,52.2398725 297.691966,52.988483 296.627014,53.4850782 L174.272401,110.539971 L174.272401,251.474764 C174.272401,255.061646 171.364659,257.969388 167.777778,257.969388 C164.190896,257.969388 161.283154,255.061646 161.283154,251.474764 L161.283154,108.168093 C161.283154,107.192109 161.498436,106.266407 161.884103,105.435882 C162.123865,103.255049 163.462999,101.24843 165.5967,100.253469 L276.798935,48.3990143 L136.858451,13.5079327 Z M292.601991,63.705067 C296.188872,63.705067 299.096614,66.6128091 299.096614,70.1996907 L299.096614,215.24007 C299.096614,218.826952 296.188872,221.734694 292.601991,221.734694 C289.015109,221.734694 286.107367,218.826952 286.107367,215.24007 L286.107367,70.1996907 C286.107367,66.6128091 289.015109,63.705067 292.601991,63.705067 Z M163.700144,275.993114 C163.676519,275.94245 163.653567,275.891475 163.631293,275.840202 C162.239534,272.636433 163.708458,268.911021 166.912227,267.519261 L271.027177,222.290362 C274.342285,220.850235 278.20124,222.313004 279.728753,225.588765 C279.752378,225.639429 279.775331,225.690405 279.797604,225.741677 C281.189364,228.945447 279.720439,232.670858 276.51667,234.062618 L172.40172,279.291517 C169.086612,280.731644 165.227657,279.268875 163.700144,275.993114 Z" id="Combined-Shape" fill="url(#linearGradient-4)"></path>
                            <path d="M121.610535,207.557249 L121.610535,207.557249 C125.211824,207.557249 128.145089,210.450307 128.19479,214.051254 L129.51347,309.591769 C129.562294,313.129148 126.734261,316.03634 123.196882,316.085164 C123.167416,316.085571 123.137948,316.085774 123.108479,316.085774 L123.108479,316.085774 C119.521597,316.085774 116.613855,313.178032 116.613855,309.59115 L116.613855,258.855504 L115.305478,214.049106 C115.203795,210.566919 117.944236,207.661619 121.426423,207.559937 C121.487777,207.558145 121.549154,207.557249 121.610535,207.557249 Z" id="Rectangle-28-Copy" fill="url(#linearGradient-5)" transform="translate(122.408415, 261.821512) rotate(-75.000000) translate(-122.408415, -261.821512) "></path>
                        </g>
                    </g>
                </g>
                <path d="M0,361.976 L0,324.376 L10.8136264,324.376 C23.0870924,324.376 29.7374727,329.962286 29.7374727,343.068571 C29.7374727,356.067429 23.0330243,361.976 10.651422,361.976 L0,361.976 Z M5.83935827,357.571429 L10.651422,357.571429 C19.5726638,357.571429 23.6818419,353.542857 23.6818419,343.122286 C23.6818419,332.809143 19.5726638,328.834286 10.651422,328.834286 L5.83935827,328.834286 L5.83935827,357.571429 Z M41.1458485,361.976 L35.6308991,361.976 L35.6308991,333.883429 L38.7127826,333.883429 C40.8755079,333.883429 41.1458485,334.528 41.1458485,338.073143 L41.1458485,361.976 Z M38.4424419,330.768 C36.7122617,330.768 35.198354,329.371429 35.198354,327.652571 C35.198354,325.88 36.7122617,324.429714 38.4424419,324.429714 C40.1726221,324.429714 41.6865298,325.88 41.6865298,327.652571 C41.6865298,329.371429 40.1726221,330.768 38.4424419,330.768 Z M72.1809563,333.883429 L72.1809563,361.009143 C72.1809563,367.616 67.0444838,371 59.1505365,371 C54.2844046,371 50.6618398,369.979429 48.282842,368.636571 L48.282842,364.500571 L50.0670903,364.500571 C51.9054068,365.897143 54.8250859,366.917714 58.3935827,366.917714 C63.5300552,366.917714 66.6660069,365.145143 66.6660069,360.633143 L66.6660069,357.625143 C64.665486,359.72 61.6917387,361.277714 57.9610376,361.277714 C52.2298156,361.277714 46.9311387,357.517714 46.9311387,347.956571 C46.9311387,337.428571 52.8786332,333.453714 58.8261277,333.453714 C62.5568288,333.453714 65.1520992,334.689143 67.0444838,336.515429 C67.3688926,335.011429 68.1258464,333.883429 69.6397541,333.883429 L72.1809563,333.883429 Z M59.4208772,357.249143 C62.3405563,357.249143 64.7736223,355.691429 66.6660069,353.757714 L66.6660069,340.329143 C64.9358266,338.717714 63.043442,337.858286 60.177831,337.858286 C56.4471299,337.858286 52.5001563,339.792 52.5001563,347.526857 C52.5001563,355.046857 55.3657673,357.249143 59.4208772,357.249143 Z M84.9951037,361.976 L79.4801542,361.976 L79.4801542,333.883429 L82.5620377,333.883429 C84.724763,333.883429 84.9951037,334.528 84.9951037,338.073143 L84.9951037,361.976 Z M82.2916971,330.768 C80.5615168,330.768 79.0476091,329.371429 79.0476091,327.652571 C79.0476091,325.88 80.5615168,324.429714 82.2916971,324.429714 C84.0218773,324.429714 85.535785,325.88 85.535785,327.652571 C85.535785,329.371429 84.0218773,330.768 82.2916971,330.768 Z M89.8612355,337.750857 L89.8612355,333.883429 L93.2675279,333.883429 L93.2675279,326.256 L98.7824773,326.256 L98.7824773,333.883429 L105.054381,333.883429 L105.054381,337.750857 L98.7824773,337.750857 L98.7824773,354.402286 C98.7824773,357.356571 100.026044,358.216 102.837587,358.216 L105.378789,358.216 L105.378789,361.761143 C104.351495,362.029714 102.783519,362.298286 100.891134,362.298286 C96.0790707,362.298286 93.2675279,360.310857 93.2675279,355.046857 L93.2675279,337.750857 L89.8612355,337.750857 Z M129.060631,361.976 C126.897906,361.976 126.140952,361.385143 125.816543,358.860571 C123.707886,361.116571 121.166684,362.298286 117.381915,362.298286 C112.245442,362.298286 108.514741,359.397714 108.514741,353.918857 C108.514741,348.171429 113.110532,345.378286 119.490572,345.378286 C121.923638,345.378286 123.707886,345.646857 125.654339,346.130286 L125.654339,342.424 C125.654339,339.093714 123.707886,337.643429 119.977185,337.643429 C116.624961,337.643429 114.029691,338.664 112.245442,339.953143 L110.515262,339.953143 L110.515262,335.870857 C113.002396,334.635429 116.138348,333.453714 120.680071,333.453714 C127.384519,333.453714 131.223357,335.870857 131.223357,342.048 L131.223357,361.976 L129.060631,361.976 Z M119.166163,358.538286 C122.13991,358.538286 124.032295,357.141714 125.654339,355.315429 L125.654339,349.353143 C124.086363,349.030857 122.356183,348.816 120.40973,348.816 C116.624961,348.816 113.921554,350.212571 113.921554,353.596571 C113.921554,357.088 116.138348,358.538286 119.166163,358.538286 Z M143.8753,361.976 L138.306282,361.976 L138.306282,324.376 L141.388165,324.376 C143.550891,324.376 143.8753,324.913143 143.8753,328.028571 L143.8753,361.976 Z M177.559746,361.976 L171.666319,361.976 L171.666319,328.780571 L160.798625,328.780571 L160.798625,324.376 L188.42744,324.376 L188.42744,328.780571 L177.559746,328.780571 L177.559746,361.976 Z M204.053131,338.288 C200.214293,338.288 197.456818,339.899429 195.67257,341.457143 L195.67257,361.976 L190.157621,361.976 L190.157621,333.883429 L193.617981,333.883429 C194.969684,333.883429 195.564434,334.474286 195.67257,337.750857 C197.564955,335.602286 200.268361,333.614857 203.78279,333.614857 C204.431607,333.614857 204.972289,333.722286 205.296698,333.829714 L205.296698,338.341714 C205.296698,338.341714 204.269403,338.288 204.053131,338.288 Z M228.329722,361.976 C226.166997,361.976 225.410043,361.385143 225.085634,358.860571 C222.976977,361.116571 220.435775,362.298286 216.651005,362.298286 C211.514533,362.298286 207.783832,359.397714 207.783832,353.918857 C207.783832,348.171429 212.379623,345.378286 218.759662,345.378286 C221.192728,345.378286 222.976977,345.646857 224.92343,346.130286 L224.92343,342.424 C224.92343,339.093714 222.976977,337.643429 219.246276,337.643429 C215.894051,337.643429 213.298781,338.664 211.514533,339.953143 L209.784353,339.953143 L209.784353,335.870857 C212.271487,334.635429 215.407438,333.453714 219.949161,333.453714 C226.65361,333.453714 230.492447,335.870857 230.492447,342.048 L230.492447,361.976 L228.329722,361.976 Z M218.435254,358.538286 C221.409001,358.538286 223.301386,357.141714 224.92343,355.315429 L224.92343,349.353143 C223.355454,349.030857 221.625273,348.816 219.678821,348.816 C215.894051,348.816 213.190645,350.212571 213.190645,353.596571 C213.190645,357.088 215.407438,358.538286 218.435254,358.538286 Z M240.981665,333.883429 C242.333368,333.883429 242.928118,334.474286 243.036254,337.428571 C245.793729,335.28 249.686634,333.453714 253.84988,333.453714 C257.796854,333.453714 261.09501,335.065143 261.09501,341.188571 L261.09501,361.976 L255.58006,361.976 L255.58006,342.477714 C255.58006,338.986286 254.012085,338.019429 251.308678,338.019429 C248.226794,338.019429 245.361183,339.469714 243.036254,340.812571 L243.036254,361.976 L237.521304,361.976 L237.521304,333.883429 L240.981665,333.883429 Z M275.801542,362.244571 C271.151682,362.244571 268.448276,361.009143 266.555891,359.773714 L266.555891,355.530286 L268.34014,355.530286 C269.637775,356.765714 272.016773,358.054857 275.531201,358.054857 C279.478175,358.054857 281.424628,356.658286 281.424628,353.972571 C281.424628,351.609143 280.072924,350.588571 275.477133,349.890286 C269.745911,349.084571 266.555891,346.989714 266.555891,341.779429 C266.555891,336.461714 270.502865,333.561143 276.7207,333.561143 C280.721742,333.561143 283.154808,334.474286 285.047192,335.548571 L285.047192,339.738286 L283.262944,339.738286 C281.911241,338.664 279.856652,337.750857 276.774768,337.750857 C273.152203,337.750857 271.476091,338.986286 271.476091,341.349714 C271.476091,343.552 273.044067,344.518857 277.477654,345.163429 C283.695489,346.076571 286.615168,348.117714 286.615168,353.489143 C286.615168,358.806857 283.208876,362.244571 275.801542,362.244571 Z M289.805188,337.750857 L289.805188,333.883429 L293.21148,333.883429 L293.21148,331.466286 C293.21148,326.256 296.239296,324 300.889155,324 C302.835608,324 304.079175,324.268571 304.998333,324.590857 L304.998333,328.028571 L302.619335,328.028571 C300.186269,328.028571 298.72643,328.780571 298.72643,331.681143 L298.72643,333.883429 L304.51172,333.883429 L304.51172,337.750857 L298.72643,337.750857 L298.72643,361.976 L293.21148,361.976 L293.21148,337.750857 L289.805188,337.750857 Z M320.13741,362.298286 C312.459735,362.298286 306.620377,356.926857 306.620377,348.010286 C306.620377,339.04 312.459735,333.453714 320.13741,333.453714 C327.815085,333.453714 333.654443,339.04 333.654443,348.010286 C333.654443,356.926857 327.815085,362.298286 320.13741,362.298286 Z M320.13741,358.162286 C324.949474,358.162286 328.031357,354.778286 328.031357,348.010286 C328.031357,341.242286 324.949474,337.589714 320.13741,337.589714 C315.379415,337.589714 312.243463,341.242286 312.243463,348.010286 C312.243463,354.778286 315.379415,358.162286 320.13741,358.162286 Z M353.010834,338.288 C349.171997,338.288 346.414522,339.899429 344.630274,341.457143 L344.630274,361.976 L339.115325,361.976 L339.115325,333.883429 L342.575685,333.883429 C343.927388,333.883429 344.522138,334.474286 344.630274,337.750857 C346.522659,335.602286 349.226065,333.614857 352.740494,333.614857 C353.389311,333.614857 353.929993,333.722286 354.254402,333.829714 L354.254402,338.341714 C354.254402,338.341714 353.227107,338.288 353.010834,338.288 Z M362.580894,333.883429 C363.932597,333.883429 364.527347,334.474286 364.635483,337.321143 C367.176685,335.333714 370.745182,333.453714 374.746224,333.453714 C377.665903,333.453714 380.261173,334.528 381.234399,337.536 C384.045942,335.226286 387.830712,333.453714 391.777685,333.453714 C395.616523,333.453714 398.806542,335.333714 398.806542,340.92 L398.806542,361.976 L393.345661,361.976 L393.345661,342.370286 C393.345661,339.093714 391.93989,338.019429 389.344619,338.019429 C386.42494,338.019429 383.82967,339.362286 381.721013,340.705143 L381.721013,361.976 L376.206063,361.976 L376.206063,342.370286 C376.206063,339.093714 374.800292,338.019429 372.259089,338.019429 C369.285342,338.019429 366.852276,339.308571 364.635483,340.705143 L364.635483,361.976 L359.120533,361.976 L359.120533,333.883429 L362.580894,333.883429 Z M424.597041,361.976 C422.434316,361.976 421.677362,361.385143 421.352953,358.860571 C419.244296,361.116571 416.703094,362.298286 412.918325,362.298286 C407.781852,362.298286 404.051151,359.397714 404.051151,353.918857 C404.051151,348.171429 408.646942,345.378286 415.026982,345.378286 C417.460048,345.378286 419.244296,345.646857 421.190749,346.130286 L421.190749,342.424 C421.190749,339.093714 419.244296,337.643429 415.513595,337.643429 C412.161371,337.643429 409.566101,338.664 407.781852,339.953143 L406.051672,339.953143 L406.051672,335.870857 C408.538806,334.635429 411.674758,333.453714 416.216481,333.453714 C422.920929,333.453714 426.759767,335.870857 426.759767,342.048 L426.759767,361.976 L424.597041,361.976 Z M414.702573,358.538286 C417.67632,358.538286 419.568705,357.141714 421.190749,355.315429 L421.190749,349.353143 C419.622773,349.030857 417.892593,348.816 415.94614,348.816 C412.161371,348.816 409.457964,350.212571 409.457964,353.596571 C409.457964,357.088 411.674758,358.538286 414.702573,358.538286 Z M431.247422,337.750857 L431.247422,333.883429 L434.653714,333.883429 L434.653714,326.256 L440.168663,326.256 L440.168663,333.883429 L446.440567,333.883429 L446.440567,337.750857 L440.168663,337.750857 L440.168663,354.402286 C440.168663,357.356571 441.41223,358.216 444.223773,358.216 L446.764976,358.216 L446.764976,361.761143 C445.737681,362.029714 444.169705,362.298286 442.277321,362.298286 C437.465257,362.298286 434.653714,360.310857 434.653714,355.046857 L434.653714,337.750857 L431.247422,337.750857 Z M457.308261,361.976 L451.793312,361.976 L451.793312,333.883429 L454.875195,333.883429 C457.037921,333.883429 457.308261,334.528 457.308261,338.073143 L457.308261,361.976 Z M454.604855,330.768 C452.874674,330.768 451.360767,329.371429 451.360767,327.652571 C451.360767,325.88 452.874674,324.429714 454.604855,324.429714 C456.335035,324.429714 457.848943,325.88 457.848943,327.652571 C457.848943,329.371429 456.335035,330.768 454.604855,330.768 Z M476.44838,362.298286 C468.770705,362.298286 462.931347,356.926857 462.931347,348.010286 C462.931347,339.04 468.770705,333.453714 476.44838,333.453714 C484.126055,333.453714 489.965413,339.04 489.965413,348.010286 C489.965413,356.926857 484.126055,362.298286 476.44838,362.298286 Z M476.44838,358.162286 C481.260444,358.162286 484.342327,354.778286 484.342327,348.010286 C484.342327,341.242286 481.260444,337.589714 476.44838,337.589714 C471.690384,337.589714 468.554433,341.242286 468.554433,348.010286 C468.554433,354.778286 471.690384,358.162286 476.44838,358.162286 Z M498.886655,333.883429 C500.238358,333.883429 500.833108,334.474286 500.941244,337.428571 C503.698719,335.28 507.591624,333.453714 511.75487,333.453714 C515.701844,333.453714 519,335.065143 519,341.188571 L519,361.976 L513.485051,361.976 L513.485051,342.477714 C513.485051,338.986286 511.917075,338.019429 509.213668,338.019429 C506.131785,338.019429 503.266174,339.469714 500.941244,340.812571 L500.941244,361.976 L495.426294,361.976 L495.426294,333.883429 L498.886655,333.883429 Z" id="Digital-Transformati" fill="url(#linearGradient-6)"></path>
            </g>
        </g>
    </g>
</svg>